<svg xmlns="http://www.w3.org/2000/svg" width="18.42" height="20" viewBox="0 0 18.42 20">
  <path id="spade-up" d="M18.32,11.633a6.659,6.659,0,0,0-1.065-2.579,19.657,19.657,0,0,0-4.114-4.389A28.733,28.733,0,0,1,9.21.193,28.742,28.742,0,0,1,5.28,4.665,19.655,19.655,0,0,0,1.166,9.054,6.661,6.661,0,0,0,.1,11.633a5.159,5.159,0,0,0,.583,3.61,4.6,4.6,0,0,0,2.967,2.145,4.244,4.244,0,0,0,2.067-.132,3.971,3.971,0,0,0,1.976-1.364c.482-.655.587-1.3.719-1.274.151.033.077.893.064,1.042a5.662,5.662,0,0,1-.533,2.091A4.86,4.86,0,0,1,6.931,19.2c-.212.169-.4.371-.6.555a.467.467,0,0,0-.056.063.3.3,0,0,0-.081.2.253.253,0,0,0,.137.174h5.75a.253.253,0,0,0,.137-.174.3.3,0,0,0-.081-.2.454.454,0,0,0-.056-.063c-.2-.184-.383-.386-.6-.555a4.86,4.86,0,0,1-1.012-1.448,5.664,5.664,0,0,1-.533-2.091c-.013-.149-.087-1.009.064-1.042.132-.029.237.619.719,1.274A3.972,3.972,0,0,0,12.7,17.256a4.244,4.244,0,0,0,2.067.132,4.6,4.6,0,0,0,2.967-2.145,5.158,5.158,0,0,0,.583-3.61" transform="translate(0 -0.193)" fill="#383933"/>
</svg>
