<svg xmlns="http://www.w3.org/2000/svg" width="18.694" height="20.298" viewBox="0 0 18.694 20.298">
  <path id="spade-down" d="M18.593,11.611a6.759,6.759,0,0,0-1.081-2.618,19.95,19.95,0,0,0-4.175-4.455A29.161,29.161,0,0,1,9.347,0,29.171,29.171,0,0,1,5.358,4.539,19.948,19.948,0,0,0,1.183,8.993,6.76,6.76,0,0,0,.1,11.611a5.236,5.236,0,0,0,.591,3.664A4.665,4.665,0,0,0,3.7,17.451a4.307,4.307,0,0,0,2.1-.134,4.03,4.03,0,0,0,2.006-1.384c.489-.665.6-1.323.73-1.293.153.034.078.907.065,1.058a5.747,5.747,0,0,1-.541,2.122,4.932,4.932,0,0,1-1.027,1.469c-.216.171-.4.377-.6.563a.474.474,0,0,0-.057.064.3.3,0,0,0-.082.205.256.256,0,0,0,.139.176h5.836a.256.256,0,0,0,.139-.176.3.3,0,0,0-.082-.205.461.461,0,0,0-.057-.064c-.2-.187-.389-.392-.6-.563a4.932,4.932,0,0,1-1.027-1.469,5.748,5.748,0,0,1-.541-2.122c-.013-.151-.089-1.024.065-1.058.134-.03.241.629.73,1.293a4.031,4.031,0,0,0,2.006,1.384,4.307,4.307,0,0,0,2.1.134A4.665,4.665,0,0,0,18,15.275a5.235,5.235,0,0,0,.591-3.664" transform="translate(18.694 20.298) rotate(180)" fill="#383933"/>
</svg>
